<svg width="40" height="40" viewBox="0 0 40 40" fill="none" xmlns="http://www.w3.org/2000/svg">
<rect width="40" height="40" rx="20" fill="#F5F4EF" fill-opacity="0.2"/>
<path d="M27 20C27 18.05 26.3208 16.3958 24.9625 15.0375C23.6042 13.6792 21.95 13 20 13V11C21.25 11 22.4208 11.2375 23.5125 11.7125C24.6042 12.1875 25.5542 12.8292 26.3625 13.6375C27.1708 14.4458 27.8125 15.3958 28.2875 16.4875C28.7625 17.5792 29 18.75 29 20H27ZM23 20C23 19.1667 22.7083 18.4583 22.125 17.875C21.5417 17.2917 20.8333 17 20 17V15C21.3833 15 22.5625 15.4875 23.5375 16.4625C24.5125 17.4375 25 18.6167 25 20H23ZM27.95 29C25.8667 29 23.8083 28.5458 21.775 27.6375C19.7417 26.7292 17.8917 25.4417 16.225 23.775C14.5583 22.1083 13.2708 20.2583 12.3625 18.225C11.4542 16.1917 11 14.1333 11 12.05C11 11.75 11.1 11.5 11.3 11.3C11.5 11.1 11.75 11 12.05 11H16.1C16.3333 11 16.5417 11.0792 16.725 11.2375C16.9083 11.3958 17.0167 11.5833 17.05 11.8L17.7 15.3C17.7333 15.5667 17.725 15.7917 17.675 15.975C17.625 16.1583 17.5333 16.3167 17.4 16.45L14.975 18.9C15.3083 19.5167 15.7042 20.1125 16.1625 20.6875C16.6208 21.2625 17.125 21.8167 17.675 22.35C18.1917 22.8667 18.7333 23.3458 19.3 23.7875C19.8667 24.2292 20.4667 24.6333 21.1 25L23.45 22.65C23.6 22.5 23.7958 22.3875 24.0375 22.3125C24.2792 22.2375 24.5167 22.2167 24.75 22.25L28.2 22.95C28.4333 23.0167 28.625 23.1375 28.775 23.3125C28.925 23.4875 29 23.6833 29 23.9V27.95C29 28.25 28.9 28.5 28.7 28.7C28.5 28.9 28.25 29 27.95 29ZM14.025 17L15.675 15.35L15.25 13H13.025C13.1083 13.6833 13.225 14.3583 13.375 15.025C13.525 15.6917 13.7417 16.35 14.025 17ZM22.975 25.95C23.625 26.2333 24.2875 26.4583 24.9625 26.625C25.6375 26.7917 26.3167 26.9 27 26.95V24.75L24.65 24.275L22.975 25.95Z" fill="#E30613"/>
</svg>
